<svg id="Capa_1" data-name="Capa 1" xmlns="http://www.w3.org/2000/svg" viewBox="0 0 340.16 340.16"><defs><style>.cls-1{fill:#ff0;}</style></defs><title>licor43</title><path class="cls-1" d="M119.76,78.76h14v3h-18v-18h4Zm20,3h4v-18h-4ZM163.2,66.71A10.82,10.82,0,0,1,171,70l4-1.42a13.81,13.81,0,0,0-11.45-5.33,14.3,14.3,0,0,0-9.08,3,8.32,8.32,0,0,0-3.09,6.55A8.46,8.46,0,0,0,155.32,80a15.27,15.27,0,0,0,8.43,2.32,13.44,13.44,0,0,0,11-4.85l-3.7-2a9.69,9.69,0,0,1-7.53,3.37c-4.77,0-7.84-2.52-7.84-6.08s3-6,7.49-6m38-.49a8.53,8.53,0,0,1,0,13.14,15.49,15.49,0,0,1-18.24,0,8.56,8.56,0,0,1,0-13.14,15.32,15.32,0,0,1,18.21,0M192,78.84c4.75,0,7.73-2.44,7.73-6.08s-3-6.05-7.71-6.05-7.7,2.5-7.7,6.05,2.94,6.08,7.68,6.08m39.8,2.92h-4.15l-4.16-6h-7.75v6h-4v-18H225.2c3.74,0,6.2,2.39,6.2,5.89,0,2.83-1.28,4.67-3.74,5.42Zm-5.64-10c2,0,3.1-1,3.1-2.55s-1.16-2.45-3.12-2.45h-10.4v5h10m41,72h1.72c.86,0,1.46-.37,1.46-1s-.53-1-1.4-1h-1.78Zm2-3c1.49,0,2.53.69,2.53,1.81s-.73,1.56-1.73,1.77l2.09,2.42h-1.2l-2-2h-1.72v2h-1v-6Zm-6.21,2.9a5.52,5.52,0,0,0,5.78,5.37,5.41,5.41,0,1,0-5.78-5.37m-.88,0a6.71,6.71,0,1,1,6.66,6.15,6.45,6.45,0,0,1-6.66-6.15m-96.27,76.39,21.08-21.9a1,1,0,0,0,.08-1.29,1.18,1.18,0,0,0-1.34-.38,59.09,59.09,0,0,1-19.2,3.28H153.76V142.47a1.07,1.07,0,0,0-.75-1,1.24,1.24,0,0,0-1.29.3L124,170.3a1,1,0,0,0-.28.69v28.77H77l88.19-91.25a1,1,0,0,0,.19-1.13,1.18,1.18,0,0,0-1.06-.62H121.5a1.18,1.18,0,0,0-1,.6,1,1,0,0,0,.17,1.13c2.84,3.14,8.08,11.15.11,19.48C108.87,140.35,46,205.6,46,205.6a1,1,0,0,0-.21,1L50.48,221a1.16,1.16,0,0,0,1.1.77h72.68c0,.06,0,6.18-.41,12.32-1.07,13.8-7.5,20.2-11.23,22.79a1,1,0,0,0-.4,1.18,1.16,1.16,0,0,0,1.09.71h45.58a1.11,1.11,0,0,0,1.15-1.05,1,1,0,0,0-.32-.72c-2.28-3.55-6-7.57-6-19.65V221.76h7.7A6.06,6.06,0,0,0,165.39,220.05ZM232,157.4a39.25,39.25,0,0,0-7.3.66l47.71-49.55a1,1,0,0,0,.19-1.13,1.15,1.15,0,0,0-1.05-.62H185.43a1.17,1.17,0,0,0-.86.36L162.62,130a1,1,0,0,0-.09,1.3,1.22,1.22,0,0,0,1.36.39c4.07-1.44,10.23-2.52,18.58-2.77,7.3-.21,44.95.09,45,.09l-39.24,41.08a1,1,0,0,0-.12,1.26,1.22,1.22,0,0,0,1.27.47,95.74,95.74,0,0,1,17.67-1.74c10.48,0,19.34,3.1,25.64,9,7.87,7.33,11.75,18.64,11.52,33.59-.16,10.77-3.68,35.83-32.61,35.83-6.62,0-12.7-2.14-16.8-6.79-6.8-7.67-7.09-16.09-4.31-27.54a1.13,1.13,0,0,0-.78-1.39,1.21,1.21,0,0,0-1.28.3s-16.9,17.81-20.38,21.71c-2,2.2-2,3.46-.61,6.81,1.63,4,10.12,22.85,45.28,22.85,18.17,0,34.57-5.46,46.19-15.39,12.74-10.88,19.48-26.66,19.48-45.62,0-29.86-23.9-46-46.39-46m111,15.51C343,79.13,266.7,2.84,172.91,2.84S2.83,79.13,2.83,172.91,79.13,343,172.91,343,343,266.69,343,172.91Zm-16.65,0c0,84.6-68.83,153.43-153.43,153.43S19.49,257.51,19.49,172.91,88.32,19.49,172.91,19.49,326.34,88.31,326.34,172.91Z" transform="translate(-2.83 -2.84)"/></svg>