<svg xmlns="http://www.w3.org/2000/svg" width="210" height="210" viewBox="0 0 210 210"><g transform="translate(-353 -73)"><path d="M458,79A100,100,0,1,1,358,179,100,100,0,0,1,458,79" transform="translate(0 -1)" fill="none" stroke="#f3e03a" stroke-miterlimit="10" stroke-width="10"/><g transform="translate(514.436 93.637)"><circle cx="12.73" cy="12.73" r="12.73" transform="translate(1.382 1.382)"/><path d="M925.878,146.19h1.145v.287h-1.508v-1.5h.363Zm1.62.287h.363v-1.5H927.5Zm1.952-1.252a.9.9,0,0,1,.65.27l.33-.117a1.145,1.145,0,0,0-.951-.442,1.183,1.183,0,0,0-.753.246.69.69,0,0,0-.257.544.7.7,0,0,0,.327.6,1.269,1.269,0,0,0,.7.192,1.116,1.116,0,0,0,.915-.4l-.307-.165a.8.8,0,0,1-.625.279c-.4,0-.651-.209-.651-.5s.252-.5.622-.5m3.149-.041a.707.707,0,0,1,0,1.09,1.285,1.285,0,0,1-1.513,0,.71.71,0,0,1,0-1.09,1.272,1.272,0,0,1,1.511,0m-.758,1.047c.395,0,.642-.2.642-.5s-.249-.5-.64-.5-.639.207-.639.5.244.5.637.5m3.442.246h-.407l-.366-.529h-.684v.529h-.363v-1.5h1.22a.5.5,0,0,1,.562.489.427.427,0,0,1-.339.45Zm-.64-.816c.154,0,.243-.076.243-.2s-.091-.193-.244-.193h-.816v.392h.818m3.4,5.927h.159c.08,0,.134-.033.134-.093s-.049-.092-.129-.092h-.164Zm.167-.254c.125,0,.212.06.212.156a.16.16,0,0,1-.145.154l.174.208h-.1l-.162-.2h-.143v.2h-.084v-.519Zm-.517.275a.458.458,0,0,0,.48.446.449.449,0,1,0-.48-.446m-.073,0a.557.557,0,1,1,.553.51.531.531,0,0,1-.553-.51m-8,6.337,1.765-1.833a.082.082,0,0,0,.007-.108.1.1,0,0,0-.112-.033,4.929,4.929,0,0,1-1.608.274h-1.026V151.5a.09.09,0,0,0-.062-.082.1.1,0,0,0-.106.025l-2.277,2.363a.084.084,0,0,0-.023.057v2.383h-3.848l7.254-7.559a.082.082,0,0,0,.015-.094.1.1,0,0,0-.087-.052h-3.518a.1.1,0,0,0-.087.051.08.08,0,0,0,.014.094,1.111,1.111,0,0,1,.009,1.617c-.984,1.028-6.206,6.446-6.206,6.446a.082.082,0,0,0-.018.082l.391,1.2a.1.1,0,0,0,.091.063h5.989c0,.005,0,.517-.034,1.032a2.417,2.417,0,0,1-.94,1.907.084.084,0,0,0-.033.1.1.1,0,0,0,.091.059h3.815a.092.092,0,0,0,.1-.087.086.086,0,0,0-.026-.061,2.419,2.419,0,0,1-.5-1.644v-1.307h.645A.508.508,0,0,0,929.618,157.946Zm5.541-5.2a3.279,3.279,0,0,0-.606.055l3.958-4.111a.08.08,0,0,0,.016-.094.1.1,0,0,0-.087-.052h-7.147a.1.1,0,0,0-.072.03l-1.821,1.9a.082.082,0,0,0-.007.108.1.1,0,0,0,.113.032,5.278,5.278,0,0,1,1.542-.229c.606-.017,3.73.007,3.734.007l-3.256,3.409a.083.083,0,0,0-.01.1.1.1,0,0,0,.1.039,7.939,7.939,0,0,1,1.467-.144,3.048,3.048,0,0,1,2.128.745,3.571,3.571,0,0,1,.956,2.787,2.673,2.673,0,0,1-2.706,2.973,1.81,1.81,0,0,1-1.394-.563,2.289,2.289,0,0,1-.357-2.285.1.1,0,0,0-.064-.116.1.1,0,0,0-.107.025s-1.4,1.477-1.691,1.8c-.164.183-.164.287-.05.565.135.332.84,1.9,3.758,1.9a5.871,5.871,0,0,0,3.832-1.277,4.8,4.8,0,0,0,1.616-3.785,3.755,3.755,0,0,0-3.849-3.816m9.209,1.289a14.112,14.112,0,1,0-14.112,14.112A14.128,14.128,0,0,0,944.368,154.037Zm-1.382,0a12.73,12.73,0,1,1-12.73-12.73A12.744,12.744,0,0,1,942.986,154.037Z" transform="translate(-916.144 -139.925)" fill="#f3e03a"/></g><g transform="translate(380.625 139.921)"><path d="M440.852,340.175V304.011h7.99v13.438h15.669V304.011h7.99v36.164h-7.99V324.713H448.842v15.462Z" transform="translate(-440.852 -302.714)" fill="#f3e03a"/><path d="M582.113,307.369a19.077,19.077,0,0,1,13.7-5.448,18.871,18.871,0,0,1,13.645,5.448,17.653,17.653,0,0,1,5.656,13.282,17.91,17.91,0,0,1-5.6,13.335,20.084,20.084,0,0,1-27.4,0,18.606,18.606,0,0,1,0-26.617Zm5.655,21.48a10.958,10.958,0,0,0,8.042,3.269,10.69,10.69,0,0,0,7.99-3.321,11.654,11.654,0,0,0,.052-16.24,11.275,11.275,0,0,0-16.085,0,11.785,11.785,0,0,0,0,16.292Z" transform="translate(-538.801 -301.195)" fill="#f3e03a"/><path d="M737.438,336.722V299.261l19.094,20.806,19.094-20.806v37.461h-7.679V318.355L756.532,331.17l-11.414-12.816v18.367Z" transform="translate(-655.001 -299.261)" fill="#f3e03a"/><path d="M903.117,340.175V304.011h24.7v7.264H911.107v6.8h15.617v7.108H911.107v7.731h17.07v7.264Z" transform="translate(-774.863 -302.714)" fill="#f3e03a"/></g><g transform="translate(407.695 184.841)"><path d="M561.1,481.4c2.185,1.365,5.99,3.479,4.1,7.646-1.365,3-5.212,3.148-8.738,3.277l.324,5.723c10.053-.807,12.054-3.629,13.327-5.954,1.368-2.5,2.734-7.688-.816-11.238l-2.877-3.263a17.69,17.69,0,0,0,4.773-12.3,17.464,17.464,0,0,0-5.655-13.231,19.814,19.814,0,0,0-27.291,0,18.362,18.362,0,0,0-.052,26.461,19.248,19.248,0,0,0,13.7,5.4,17.618,17.618,0,0,0,9.287-2.542m-.052-9.287-4-4.618h-8.665l7.42,8.4a9.856,9.856,0,0,1-4,.83,10.958,10.958,0,0,1-8.042-3.269,11.72,11.72,0,0,1,0-16.24,11.389,11.389,0,0,1,19.4,8.094A10.641,10.641,0,0,1,561.118,472.094Z" transform="translate(-532.581 -446.618)" fill="#f3e03a"/><path d="M715.958,470.713c0,5.863-2.439,8.769-7.368,8.769s-7.419-2.905-7.419-8.769v-20.7h-7.99v21.532c0,4.929,1.452,8.665,4.358,11.311a15.973,15.973,0,0,0,11.051,3.891,15.724,15.724,0,0,0,11-3.943c2.906-2.646,4.358-6.382,4.358-11.259V450.011h-7.99Z" transform="translate(-649.325 -449.084)" fill="#f3e03a"/><rect width="7.99" height="36.164" transform="translate(81.523 0.927)" fill="#f3e03a"/><path d="M908.663,450.011H879.971v7.264h15.41l-19.042,28.9h31.546v-7.264H889.777Z" transform="translate(-782.468 -449.085)" fill="#f3e03a"/></g></g></svg>